<?xml version="1.0" encoding="UTF-8" standalone="no"?>
<!-- Created with Inkscape (http://www.inkscape.org/) -->

<svg
   width="210.90353mm"
   height="211.28094mm"
   viewBox="0 0 210.90353 211.28094"
   version="1.1"
   id="svg1"
   xml:space="preserve"
   sodipodi:docname="figma-icon.svg"
   xmlns:inkscape="http://www.inkscape.org/namespaces/inkscape"
   xmlns:sodipodi="http://sodipodi.sourceforge.net/DTD/sodipodi-0.dtd"
   xmlns="http://www.w3.org/2000/svg"
   xmlns:svg="http://www.w3.org/2000/svg"><sodipodi:namedview
     id="namedview1"
     pagecolor="#ffffff"
     bordercolor="#000000"
     borderopacity="0.25"
     inkscape:showpageshadow="2"
     inkscape:pageopacity="0.0"
     inkscape:pagecheckerboard="0"
     inkscape:deskcolor="#d1d1d1"
     inkscape:document-units="mm"
     showgrid="false" /><defs
     id="defs1" /><g
     inkscape:label="Layer 1"
     inkscape:groupmode="layer"
     id="layer1"
     transform="translate(-0.13801906,-0.4896126)"><g
       id="g7"
       transform="matrix(4.6343938,0,0,4.6343938,-3.2489523,-1.7794449)"><path
         style="fill:#9c56f7"
         d="m 16.088417,27.986787 c -4.567254,-1.690366 -4.537822,-8.186238 0.04486,-9.900839 1.209149,-0.452401 1.954712,-0.534908 4.275826,-0.473181 l 2.811315,0.07476 0.174071,2.645833 c 0.09574,1.455208 0.09574,3.836458 0,5.291667 l -0.174071,2.645833 -3.042709,0.05164 c -2.130241,0.03615 -3.356565,-0.06452 -4.089292,-0.335712 z"
         id="path15" /><path
         style="fill:#1ab7f4"
         d="m 26.925174,28.001183 c -1.141526,-0.616585 -1.701505,-1.163395 -2.554168,-2.494099 -1.233133,-1.924483 -0.949077,-4.091614 0.813091,-6.203276 1.047368,-1.255094 4.211542,-1.88689 6.022742,-1.202571 1.058918,0.400087 2.186437,1.529461 2.756757,2.761293 1.073812,2.319326 0.300016,5.126557 -1.818934,6.598852 -1.402535,0.974513 -3.930626,1.235969 -5.219488,0.539801 z"
         id="path14" /><path
         style="fill:#f66e5e"
         d="m 17.089711,17.387859 c 0.120611,-0.126223 1.608892,-0.289027 3.307291,-0.361788 l 3.087999,-0.132291 0.05079,-5.027084 c 0.02793,-2.7648957 0.0577,-5.1277977 0.06615,-5.2508932 0.0084,-0.1230955 1.672231,-0.1826267 3.697295,-0.1322917 3.597742,0.089426 3.707693,0.1096686 4.808333,0.8852683 1.532012,1.0795784 2.357648,2.7051556 2.357648,4.6419216 0,1.270019 -0.139516,1.724743 -0.859895,2.802656 -1.506983,2.254916 -2.096009,2.409556 -9.988021,2.622204 -3.80856,0.102621 -6.651372,0.08185 -6.527582,-0.0477 z"
         id="path13" /><path
         style="fill:#5f6794"
         d="M 7.0194135,45.616119 C 4.5580835,44.724547 2.6308612,42.906381 1.4280546,40.341158 L 0.73083374,38.854197 V 23.24378 7.6333628 L 1.4347331,6.1318136 C 2.4202457,4.0295309 4.0460435,2.368919 6.1167966,1.3494906 L 7.8634568,0.48961258 H 23.479437 39.095418 l 1.616708,0.74715982 c 1.935228,0.894364 3.75972,2.6785972 4.782322,4.6767986 l 0.74472,1.4552084 v 15.8750006 15.875 l -0.745696,1.518558 c -0.950068,1.934747 -2.680166,3.664845 -4.614913,4.614913 l -1.518558,0.745696 -15.478125,0.05981 C 9.2669731,46.114233 8.3265454,46.089603 7.0194135,45.616119 Z M 40.608101,45.156764 c 1.744676,-0.806008 3.678682,-2.705044 4.592377,-4.509338 L 45.974585,39.11878 V 23.376071 7.6333628 L 45.268099,6.1261643 C 44.366865,4.2034955 42.525285,2.3619154 40.602616,1.4606817 L 39.095418,0.75419592 24.278751,0.67225266 C 11.132848,0.59954952 9.2765702,0.63989784 7.8169112,1.0300696 4.7917266,1.8387115 2.4392098,4.0977547 1.405334,7.1868926 0.85858792,8.8205261 0.84815797,9.1825329 0.92889423,23.723351 1.0183683,39.837878 0.99299219,39.55285 2.537766,41.794465 c 1.1232875,1.629999 2.3684136,2.619713 4.3031046,3.420411 l 1.56288,0.646818 15.4781254,-0.06417 c 15.276617,-0.06333 15.494374,-0.07167 16.726225,-0.640765 z M 15.679792,28.233797 c -1.935964,-1.264772 -2.188678,-1.520845 -2.803048,-2.840306 -0.735153,-1.578861 -0.789567,-2.532861 -0.236884,-4.1531 0.658442,-1.930282 2.726909,-3.70394 4.288205,-3.677025 0.259336,0.0045 -0.173112,0.272362 -0.960995,0.595313 -2.331331,0.955607 -3.847757,3.744507 -3.222137,5.925917 0.957131,3.33732 2.827245,4.38665 7.595243,4.261729 l 2.880242,-0.07546 0.132291,-2.116666 0.132292,-2.116667 0.850765,1.455208 c 1.108683,1.896368 2.352147,2.690677 4.573193,2.921298 l 1.719792,0.178574 -1.455208,0.03175 c -1.826522,0.03986 -3.378633,-0.635245 -4.398164,-1.913009 -0.418666,-0.524709 -0.850508,-0.95402 -0.959649,-0.954025 -0.109141,-4e-6 -0.198473,0.684602 -0.198516,1.521347 l -7.9e-5,1.521354 -3.50565,0.01938 c -3.223637,0.01782 -3.580147,-0.02929 -4.431693,-0.58561 z m 16.30812,-0.690538 c 2.957388,-1.976451 3.305823,-6.038992 0.724723,-8.449834 -1.00641,-0.940025 -1.957837,-1.273604 -3.632546,-1.273604 -1.759391,0 -3.535007,0.868948 -4.32522,2.116667 -1.387817,2.191317 -1.342302,2.197597 -1.442849,-0.199059 -0.05038,-1.200889 -0.0023,-2.183154 0.106835,-2.182812 0.109141,3.41e-4 0.198438,0.655465 0.198438,1.455829 0,0.800365 0.09667,1.455209 0.214826,1.455209 0.118154,0 0.473989,-0.350538 0.790745,-0.778972 0.316755,-0.428434 1.104738,-1.142809 1.751074,-1.5875 3.166963,-2.178928 7.966019,0.314981 8.297476,4.311922 0.06544,0.789157 -0.02632,1.875106 -0.203909,2.413218 -0.382796,1.159885 -1.637814,2.659503 -2.674266,3.195473 -1.248088,0.645411 -1.159451,0.428437 0.194673,-0.476537 z"
         id="path12" /><path
         style="fill:#ed4c1e"
         d="M 15.513616,16.820496 C 13.390654,15.740775 12.332123,13.748447 12.58413,11.306726 12.789215,9.3196502 13.794308,7.8803856 15.54678,7.0642968 16.711862,6.521743 17.271073,6.4475975 20.215132,6.4453224 l 3.344715,-0.00258 -0.01192,5.1832766 c -0.0081,3.518935 -0.105068,5.211957 -0.302006,5.272597 -0.159547,0.04913 -1.793614,0.138602 -3.631261,0.198834 -2.577676,0.08449 -3.514815,0.0212 -4.101042,-0.276949 z"
         id="path11" /><path
         style="fill:#09cb80"
         d="m 15.588161,38.499725 c -3.270962,-1.957936 -3.433794,-5.870004 -0.347681,-8.353127 1.014241,-0.81607 1.021303,-0.817401 4.335617,-0.817401 h 3.319721 l 0.121359,2.682988 c 0.105362,2.329325 0.04695,2.851198 -0.443118,3.959083 -0.973275,2.200249 -1.859897,2.853072 -4.248709,3.128337 -1.296811,0.149433 -1.594287,0.08424 -2.737189,-0.59988 z"
         id="path10" /><path
         style="fill:#0dbf79"
         d="m 15.464401,39.106837 c -1.831839,-0.929908 -2.753061,-2.329554 -2.909457,-4.420442 -0.174859,-2.337725 0.739264,-4.149751 2.629347,-5.212037 0.915764,-0.514688 1.470188,-0.592699 4.483218,-0.630824 2.795797,-0.03537 3.488066,0.03065 3.70498,0.353371 0.153386,0.228205 0.232701,1.690013 0.186626,3.439583 -0.07012,2.66244 -0.162422,3.190041 -0.738581,4.221585 -1.495077,2.676758 -4.626984,3.634179 -7.356133,2.248764 z m 4.978241,-0.517404 c 0.939732,-0.485955 1.483945,-1.154449 2.131417,-2.618165 0.49007,-1.107885 0.54848,-1.629758 0.443118,-3.959083 l -0.121359,-2.682988 h -3.319721 c -3.314314,0 -3.321376,0.0013 -4.335617,0.817401 -3.086113,2.483123 -2.923281,6.395191 0.347681,8.353127 1.142902,0.684119 1.440378,0.749313 2.737189,0.59988 0.800214,-0.09221 1.752995,-0.321787 2.117292,-0.510172 z"
         id="path9" /><path
         style="fill:#58585c"
         d="M 7.9495461,45.648622 C 7.534049,45.484106 27.261281,45.504586 35.391251,45.67711 c 1.891771,0.04015 -3.40651,0.09062 -11.773958,0.112172 -8.367449,0.02155 -15.4179344,-0.04175 -15.6677469,-0.14066 z M 40.28315,45.016033 c 0.985328,-0.378215 1.941035,-1.046187 2.972219,-2.07737 0.835947,-0.835947 1.410544,-1.315565 1.276884,-1.065818 -0.721875,1.348835 -4.130881,3.732215 -5.304544,3.70863 -0.218281,-0.0044 0.256667,-0.258836 1.055441,-0.565442 z M 5.4522406,44.549212 c -1.8051794,-1.035338 -4.066506,-3.870278 -4.0573638,-5.086563 0.00142,-0.189128 0.2888719,0.271003 0.6387785,1.022514 0.7747094,1.663879 2.3467471,3.283551 4.0446792,4.167236 0.6968955,0.362698 1.1480202,0.663877 1.0024994,0.669287 -0.1455209,0.0054 -0.8783878,-0.342203 -1.6285933,-0.772474 z M 44.933262,40.761015 c 0.09936,-0.260937 0.247304,-0.407781 0.328766,-0.326319 0.08146,0.08146 1.68e-4,0.294956 -0.180654,0.474431 -0.261306,0.259363 -0.291697,0.228972 -0.148112,-0.148112 z M 17.603057,39.861468 c 0.257431,-0.06708 0.614619,-0.06267 0.79375,0.0098 0.179132,0.07248 -0.03149,0.127362 -0.468056,0.12197 -0.436563,-0.0054 -0.583125,-0.06469 -0.325694,-0.131774 z m 27.732717,0.05106 c 0.02755,-0.50118 0.468513,-1.345101 0.483871,-0.926041 0.008,0.218281 -0.100871,0.575468 -0.241935,0.79375 -0.141065,0.218281 -0.249936,0.277812 -0.241936,0.132291 z M 15.28479,39.254102 c -0.09269,-0.149981 0.01351,-0.194338 0.248969,-0.103984 0.458369,0.175893 0.542233,0.365537 0.161648,0.365537 -0.136932,0 -0.32171,-0.117699 -0.410617,-0.261553 z M 1.02849,38.159666 C 0.93753948,37.704913 0.86312541,30.914594 0.86312541,23.070069 0.86312541,9.3257365 0.88313917,8.7474895 1.4137213,7.1619955 2.4390577,4.0980684 4.800934,1.8362503 7.8169112,1.0300696 9.2765702,0.63989784 11.132848,0.59954952 24.278751,0.67225266 l 14.816667,0.0819433 1.507198,0.70648574 c 1.922669,0.9012337 3.764249,2.7428138 4.665483,4.6654826 l 0.706486,1.5071985 0.01027,15.4781252 0.01027,15.478125 L 45.852567,23.111488 45.710001,7.6333628 45.023586,6.1781544 C 44.154531,4.3357488 42.514679,2.6981816 40.594163,1.7549021 L 39.095418,1.0187793 H 23.617293 8.1391672 l -1.5875,0.7410317 C 4.4893405,2.7224879 2.9391669,4.2644371 2.007996,6.2793759 L 1.2600004,7.8979461 V 23.442237 c 0,8.549361 -0.014883,15.544283 -0.033073,15.544272 -0.01819,-1.1e-5 -0.107487,-0.372091 -0.1984374,-0.826843 z m 12.005469,-1.025261 c -0.155761,-0.291042 -0.22367,-0.529167 -0.15091,-0.529167 0.07276,0 0.259733,0.238125 0.415493,0.529167 0.155761,0.291042 0.22367,0.529167 0.15091,0.529167 -0.07276,0 -0.259732,-0.238125 -0.415493,-0.529167 z m -0.721687,-2.910417 c 0,-0.654843 0.0516,-0.922734 0.114662,-0.595312 0.06306,0.327422 0.06306,0.863203 0,1.190625 -0.06306,0.327422 -0.114662,0.05953 -0.114662,-0.595313 z m 0.200623,-1.719791 c 0,-0.145521 0.115416,-0.443177 0.256481,-0.661459 0.141064,-0.218281 0.25648,-0.277812 0.25648,-0.132291 0,0.14552 -0.115416,0.443177 -0.25648,0.661458 -0.141065,0.218281 -0.256481,0.277813 -0.256481,0.132292 z m 0.521064,-1.29052 c 0,-0.05494 0.208359,-0.263302 0.463021,-0.463021 0.419644,-0.329107 0.429002,-0.319749 0.0999,0.0999 -0.345644,0.440729 -0.562916,0.580887 -0.562916,0.363126 z m 2.512253,-2.155211 c 0.453094,-0.353308 0.471836,-0.447051 0.132292,-0.661707 -0.217573,-0.137546 -0.475748,-0.251908 -0.573724,-0.254136 -0.75246,-0.01711 -2.864571,-2.778473 -2.864571,-3.745121 0,-0.177413 0.327422,0.323736 0.727604,1.113663 0.448834,0.885961 1.082403,1.660222 1.653646,2.020857 2.029361,1.28117 2.00546,1.247851 1.156461,1.612141 -0.710345,0.304796 -0.725365,0.299241 -0.231708,-0.0857 z m 13.035103,-0.313274 c 0.329118,-0.06329 0.805368,-0.06088 1.058333,0.0053 0.252965,0.06622 -0.01631,0.118003 -0.598397,0.115066 -0.582083,-0.0029 -0.789055,-0.05712 -0.459936,-0.120406 z m -4.915079,-1.466516 c -0.04598,-1.429211 0.207399,-1.912262 0.63778,-1.215891 0.113715,0.183994 0.07291,0.233849 -0.102609,0.125371 -0.194151,-0.119992 -0.323907,0.28578 -0.388813,1.21589 l -0.09742,1.395984 z m 8.020848,0.81701 c 0.291042,-0.160258 0.891602,-0.603122 1.334577,-0.984142 0.448593,-0.385851 0.365219,-0.253199 -0.188192,0.299423 -0.546481,0.545704 -1.147041,0.988567 -1.334577,0.984142 -0.187536,-0.0044 -0.102849,-0.139165 0.188192,-0.299423 z m -6.639722,-0.81701 -0.504028,-0.595313 0.595313,0.504028 c 0.559447,0.473662 0.715761,0.686597 0.504028,0.686597 -0.05021,0 -0.318097,-0.26789 -0.595313,-0.595312 z m 9.749154,-4.29948 c 0.0029,-0.582083 0.05712,-0.789054 0.120406,-0.459936 0.06329,0.329119 0.06088,0.805369 -0.0053,1.058334 -0.06622,0.252965 -0.118003,-0.01631 -0.115067,-0.598398 z M 12.262857,21.788571 c -0.008,-0.218281 0.100871,-0.575468 0.241935,-0.79375 0.312559,-0.483649 0.312559,-0.0659 0,0.661459 -0.149934,0.348916 -0.232345,0.393979 -0.241935,0.132291 z m 11.354436,-2.786429 c 0,-1.706276 0.09095,-1.772764 2.270342,-1.659635 l 1.549633,0.08044 -0.751939,0.490466 c -0.413567,0.269755 -0.670722,0.359052 -0.571456,0.198437 0.121549,-0.19667 -0.213398,-0.292028 -1.025757,-0.292028 h -1.20624 v 1.20624 c 0,0.844407 0.09163,1.14961 0.305464,1.017453 0.189256,-0.116967 0.233643,-0.07258 0.116676,0.116677 -0.419267,0.678389 -0.686723,0.227367 -0.686723,-1.15805 z m -10.021841,0.153459 c 0.317534,-0.429487 0.747453,-0.846167 0.955376,-0.925955 0.207923,-0.07979 -0.01498,0.271612 -0.495342,0.780887 -1.067059,1.131287 -1.226305,1.181504 -0.460034,0.145068 z m 11.344757,-0.145155 c 0.341775,-0.363802 0.680939,-0.661458 0.7537,-0.661458 0.07276,0 -0.147342,0.297656 -0.489116,0.661458 -0.341775,0.363802 -0.68094,0.661459 -0.7537,0.661459 -0.07276,0 0.147342,-0.297657 0.489116,-0.661459 z m 8.168335,-0.06615 c -0.329108,-0.419644 -0.319749,-0.429003 0.09989,-0.0999 0.440729,0.345643 0.580887,0.562915 0.363126,0.562915 -0.05494,0 -0.263302,-0.208359 -0.463021,-0.46302 z M 15.777331,17.611469 c 0.108129,-0.174957 -0.131164,-0.461435 -0.578779,-0.692906 -0.419719,-0.217045 -1.125383,-0.807216 -1.568142,-1.311491 -2.264842,-2.579513 -1.66024,-6.6046483 1.284806,-8.5535877 1.057085,-0.6995457 1.216828,-0.7221335 6.67847,-0.9443426 7.105505,-0.2890903 8.849499,-0.1675467 10.368425,0.7226032 1.892601,1.1091382 3.035357,3.0480979 3.02968,5.1405791 -0.0036,1.326379 -1.071805,3.483961 -2.142419,4.327294 -0.493737,0.388921 -1.09201,0.876018 -1.329495,1.082437 -0.260238,0.226195 -0.572556,0.28831 -0.786088,0.156339 -0.404339,-0.249895 -0.44744,-0.20878 0.953295,-0.909352 0.642063,-0.321124 1.396554,-1.035342 1.91823,-1.815839 0.720397,-1.077811 0.859895,-1.532452 0.859895,-2.802502 0,-1.936684 -0.825601,-3.5622849 -2.357515,-4.6419216 L 30.98143,6.5750294 23.984804,6.492814 C 17.08191,6.4117 16.969666,6.4190787 15.606381,7.0435997 c -1.799884,0.8245265 -2.813922,2.2446118 -3.018548,4.2272543 -0.269692,2.613061 0.829153,4.547881 3.213439,5.658149 0.733551,0.341586 1.194638,0.622229 1.024639,0.62365 -0.169999,0.0014 -0.516953,0.08235 -0.771008,0.17984 -0.306897,0.117767 -0.400051,0.07715 -0.277572,-0.121024 z"
         id="path8" /><path
         style="fill:#2a2c34"
         d="M 7.7422922,45.353653 C 5.2718387,44.599452 3.053058,42.678694 1.9606069,40.348553 L 1.2600004,38.854197 V 23.376071 7.8979461 L 2.007996,6.2793759 C 2.9391669,4.2644371 4.4893405,2.7224879 6.5516672,1.759811 l 1.5875,-0.7410317 H 23.617293 39.095418 l 1.498745,0.7361228 c 1.920516,0.9432795 3.560368,2.5808467 4.429423,4.4232523 l 0.686415,1.4552084 0.07425,15.3803892 c 0.07374,15.274406 0.07025,15.391077 -0.506049,16.931383 -0.790038,2.111564 -2.970965,4.298324 -5.070183,5.083742 -1.505066,0.563117 -1.769482,0.571834 -16.6668,0.549453 C 15.215612,45.565822 8.1060943,45.464718 7.7422922,45.353653 Z M 19.53899,39.655969 c 1.502768,-0.446274 3.036897,-1.856808 3.668509,-3.372962 0.283722,-0.681061 0.418628,-1.94273 0.43851,-4.101041 0.01579,-1.714544 0.105091,-3.831728 0.198437,-4.704853 l 0.169722,-1.5875 0.617594,0.865886 c 1.245539,1.746283 3.811946,2.503457 6.165903,1.819143 3.508038,-1.019815 5.184279,-5.272125 3.326016,-8.437481 -0.440898,-0.751023 -1.156489,-1.494364 -1.782944,-1.852084 -0.575548,-0.328651 -1.047369,-0.683787 -1.04849,-0.78919 -0.0011,-0.105404 0.325384,-0.361982 0.725567,-0.570174 1.026642,-0.534103 1.799145,-1.429208 2.425163,-2.810058 C 35.671989,11.404738 34.651196,8.4076537 31.962111,6.8317449 30.443185,5.941595 28.699191,5.8200514 21.593686,6.1091417 16.132044,6.3313508 15.972301,6.3539386 14.915216,7.0534843 11.763995,9.1388639 11.3375,13.622409 14.062561,16.017063 c 0.548726,0.482194 1.224933,1.007843 1.502681,1.168108 0.46568,0.268706 0.43315,0.327577 -0.417831,0.756169 -2.585914,1.302382 -3.768298,5.090842 -2.416096,7.741377 0.575353,1.127784 1.797598,2.306847 2.682466,2.587693 0.722843,0.229422 0.667309,0.46706 -0.233499,0.99918 -3.37944,1.996285 -3.89983,6.236715 -1.098868,8.95419 1.749841,1.697684 3.243583,2.089675 5.457576,1.432189 z m 4.3442,-20.579377 -0.0013,-1.256771 1.256771,0.0059 1.256771,0.0059 -0.66052,0.507461 c -0.363286,0.279104 -0.928241,0.842003 -1.255456,1.250888 l -0.594938,0.743426 z"
         id="path7" /></g></g></svg>
