<?xml version="1.0" encoding="UTF-8" standalone="no"?>
<!-- Created with Inkscape (http://www.inkscape.org/) -->

<svg
   version="1.1"
   id="svg1"
   width="255.81177"
   height="256.53439"
   viewBox="0 0 255.81177 256.53439"
   sodipodi:docname="html5.jpg"
   xmlns:inkscape="http://www.inkscape.org/namespaces/inkscape"
   xmlns:sodipodi="http://sodipodi.sourceforge.net/DTD/sodipodi-0.dtd"
   xmlns="http://www.w3.org/2000/svg"
   xmlns:svg="http://www.w3.org/2000/svg">
  <defs
     id="defs1" />
  <sodipodi:namedview
     id="namedview1"
     pagecolor="#ffffff"
     bordercolor="#000000"
     borderopacity="0.25"
     inkscape:showpageshadow="2"
     inkscape:pageopacity="0.0"
     inkscape:pagecheckerboard="0"
     inkscape:deskcolor="#d1d1d1" />
  <g
     inkscape:groupmode="layer"
     inkscape:label="Image"
     id="g1"
     transform="translate(-0.72263205)">
    <rect
       style="fill:#000000"
       id="rect6"
       width="255.81175"
       height="256.53439"
       x="0.72263205"
       y="0"
       ry="21.279968"
       inkscape:export-filename="rect6.png"
       inkscape:export-xdpi="96"
       inkscape:export-ydpi="96" />
    <path
       style="fill:#ee652a"
       d="m 107.57219,248.06134 -16.999995,-4.85751 -17.47736,-4.82359 -17.47736,-4.8236 -0.70812,-2.49589 -0.70812,-2.4959 -1.07257,-13 -1.07256,-13 -4.01928,-45 -4.019283,-45 -1.928239,-21.499998 -1.928238,-21.5 -0.681954,-8.75 -0.681954,-8.75 h 88.578493 88.57851 l 0.62434,1.01021 0.62434,1.0102 -1.05683,11.2398 -1.05684,11.23979 -5.01196,55.999998 -5.01196,56 -2.01643,21.9699 -2.01643,21.9699 -0.7301,0.64483 -0.7301,0.64483 -9.5,2.6115 -9.5,2.6115 -25.28065,7.02377 -25.28065,7.02377 -2.71935,-0.073 -2.71935,-0.073 z m 28.0685,-34.40648 4.9315,-1.40999 15.5,-4.22188 15.5,-4.22188 1.5803,-1.76934 1.58029,-1.76933 2.84563,-32.68106 2.84562,-32.68105 -1.42592,-0.92536 -1.42592,-0.92537 -38.86284,0.0948 -38.862837,0.0948 -0.77883,-0.83716 -0.77882,-0.83719 -0.70166,-9.75 -0.70166,-9.75 0.34333,-0.2228 0.34332,-0.2228 42.499997,-0.5272 42.5,-0.5272 0.89189,-9.65905 0.89189,-9.659048 -0.61051,-1.59095 -0.6105,-1.59095 h -54.9962 -54.996195 l -0.90417,1.75 -0.90418,1.75 2.91384,31.451578 2.91384,31.45158 1.0776,1.29842 1.07759,1.29842 h 37.318535 37.31854 l 0.51177,0.82807 0.51178,0.82807 -1.12879,12.73096 -1.1288,12.73095 -1.57396,0.81652 -1.57397,0.81652 -10.84168,2.79918 -10.84168,2.79918 -9.15832,-2.23251 -9.15832,-2.23251 -3.15647,-1.35462 -3.15647,-1.35461 -0.71355,-7.8376 -0.71355,-7.8376 -1.00242,-1.25 -1.002427,-1.25 h -9.755108 -9.75511 l -1.01668,1.25 -1.01667,1.25 1.36176,14 1.36177,14 0.0478,2 0.0478,2 0.8359,1.31827 0.83589,1.31827 20.898785,5.87825 20.89879,5.87825 3.0685,0.0535 3.0685,0.0535 z M 55.512895,34.770922 l -0.49653,-1.29393 0.27792,-14.95607 0.27791,-14.9560688 3.81979,-0.314526 3.81979,-0.314526 1.37652,1.14241 1.37652,1.14241 0.30369,4.1721162 0.30369,4.1721146 h 5 5 l 0.5,-4.9999986 0.5,-5.0000002 3.81979,-0.314526 3.81979,-0.314526 1.43021,1.18697 1.43021,1.186971 -0.0153,14.1275598 -0.0153,14.12755 -0.83379,1.31487 -0.8338,1.31487 -4.40089,-0.31487 -4.40089,-0.31487 -0.5,-5 -0.5,-5 h -5 -5 l -0.32451,3.98732 -0.32452,3.98732 -1.04793,1.26268 -1.04793,1.26268 h -3.90894 -3.90894 z m 48.185335,-0.23821 -0.62604,-1.63143 v -9.3729 -9.3729 l -3.749997,-0.62323 -3.75,-0.62322 -1.307938,-0.41294 -1.30795,-0.41294 0.30795,-4.2591496 0.30794,-4.2591492 h 14.999995 15 v 4.4830362 4.4830326 l -3.80085,0.61781 -3.80084,0.61781 -0.91006,0.91006 -0.91006,0.91006 -0.28909,9.9891 -0.2891,9.98909 -4.62396,0.29965 -4.62396,0.29964 z m 26.8369,0.29615 -0.51877,-1.35187 0.27792,-14.95607 0.27791,-14.9560688 5.20868,-0.300827 5.20868,-0.300827 3.29132,5.0328602 3.29132,5.0328626 1.29651,0.018 1.29651,0.018 1.70349,-3.1566112 1.70349,-3.1566134 1.75,-1.8433872 1.75,-1.843387 h 4.46482 4.46481 l 1.03519,1.934258 1.03518,1.9342592 v 12.8746116 12.87461 l -1.28988,1.76402 -1.28989,1.76402 -3.96011,-0.32289 -3.96012,-0.32289 -0.5,-6.4219 -0.5,-6.42189 -1.19134,-0.39188 -1.19134,-0.39189 -1.49272,2.88661 -1.49273,2.88662 -1.46833,1.21861 -1.46833,1.2186 -2.29943,-3.29144 -2.29942,-3.29144 -1.01922,-0.69563 -1.01922,-0.69562 -0.52896,0.52785 -0.52896,0.52785 -0.5,6.16778 -0.5,6.16777 -4.25915,0.30795 -4.25915,0.30794 z m 43.97776,-0.0579 -0.49653,-1.29393 0.27792,-14.95607 0.27791,-14.9560688 4.40089,-0.314871 4.40089,-0.314871 0.8338,1.314871 0.83379,1.314871 0.0153,9.7499988 0.0153,9.75 3.25,0.18289 3.25,0.18289 2.79678,-0.19304 2.79677,-0.19304 1.95323,1.04534 1.95322,1.04533 v 2.88303 2.88303 l -0.60699,1.58178 -0.60699,1.58179 h -12.42439 -12.4244 z"
       id="path6" />
  </g>
</svg>
