<?xml version="1.0" encoding="UTF-8" standalone="no"?>
<!-- Created with Inkscape (http://www.inkscape.org/) -->

<svg
   width="508.03668mm"
   height="507.67383mm"
   viewBox="0 0 508.03668 507.67383"
   version="1.1"
   id="svg1"
   xml:space="preserve"
   sodipodi:docname="react-icon.svg"
   xmlns:inkscape="http://www.inkscape.org/namespaces/inkscape"
   xmlns:sodipodi="http://sodipodi.sourceforge.net/DTD/sodipodi-0.dtd"
   xmlns="http://www.w3.org/2000/svg"
   xmlns:svg="http://www.w3.org/2000/svg"><sodipodi:namedview
     id="namedview1"
     pagecolor="#ffffff"
     bordercolor="#000000"
     borderopacity="0.25"
     inkscape:showpageshadow="2"
     inkscape:pageopacity="0.0"
     inkscape:pagecheckerboard="0"
     inkscape:deskcolor="#d1d1d1"
     inkscape:document-units="mm" /><defs
     id="defs1" /><g
     inkscape:label="Layer 1"
     inkscape:groupmode="layer"
     id="layer1"
     transform="translate(149.07185,105.5)"><rect
       style="fill:#000000;stroke-width:1.61746"
       id="rect3"
       width="508.03668"
       height="507.67383"
       x="-149.07185"
       y="-105.5"
       ry="37.586418"
       inkscape:export-filename="react-icon.svg"
       inkscape:export-xdpi="39.950001"
       inkscape:export-ydpi="39.950001" /><path
       d="m 0.37735663,359.26043 c -9.59285003,-1.5584 -16.92075963,-5.3594 -23.42274963,-12.1495 -10.51832,-10.9844 -16.18566,-27.4434 -17.6797,-51.345 -1.04857,-16.7752 1.40607,-40.26496 6.40293,-61.27299 1.19063,-5.00573 1.14432,-5.99734 -0.28013,-5.99734 -0.30402,0 -4.25587,-1.22838 -8.78187,-2.72973 -39.81415,-13.207 -69.445257,-32.84078 -82.588247,-54.72354 -7.07042,-11.77207 -8.70048,-24.78425 -4.55149,-36.33305 8.22588,-22.89695 35.649847,-44.043071 76.500677,-58.988271 3.56754,-1.30518 9.65091,-3.35109 13.51861,-4.54647 3.8677,-1.19538 7.14163,-2.28287 7.27541,-2.41665 0.13377,-0.13377 -0.0717,-1.70755 -0.45654,-3.49729 -5.14355,-23.91879 -6.55614,-34.51758 -6.89823,-51.75808 -0.43272,-21.8083896 2.03539,-36.75773 8.26592,-50.06658 6.79253,-14.50933 17.23666,-22.90914 31.70321968,-25.49766 4.48433992,-0.80239 14.29348032,-0.61651 19.84375032,0.37603 24.60018,4.39919 54.67411,21.82646 82.451973,47.77937 1.5832,1.47918 3.16723,2.68942 3.52006,2.68942 0.35283,0 2.21494,-1.49732 4.13802,-3.32738 8.95788,-8.52458 22.22338,-19.14921 32.40386,-25.95296 23.1429,-15.4667 45.31934,-23.47766 62.42984,-22.55199 14.17901,0.76707 24.49124,6.41803 32.64604,17.88956 2.35892,3.31833 6.55891,11.83856 8.02603,16.28183 7.72791,23.4044804 7.50206,56.47753 -0.63129,92.44522 -0.63836,2.823 -1.02365,5.26789 -0.85619,5.4331 0.16746,0.16521 3.25127,1.22068 6.85291,2.34549 31.29594,9.77389 57.57396,23.82941 73.7693,39.457531 16.25057,15.68142 22.03569,32.60154 16.8325,49.23116 -7.97376,25.48446 -41.24399,49.85455 -89.54139,65.58812 -3.67325,1.19662 -6.76802,2.40859 -6.87727,2.69328 -0.10924,0.28469 0.34266,2.89722 1.00423,5.80561 3.49548,15.36679 5.41793,30.33399 5.85329,45.57076 1.09011,38.152 -9.76523,65.9464 -29.63348,75.8747 -6.50225,3.2492 -13.11925,4.488 -22.34616,4.1834 -8.04114,-0.2654 -13.83531,-1.3859 -22.68134,-4.3861 -20.18264,-6.8452 -42.08337,-20.8998 -64.77061,-41.5659 -3.09994,-2.8238 -5.79905,-5.1342 -5.99804,-5.1342 -0.19899,0 -2.21682,1.718 -4.48407,3.8177 -27.290263,25.2737 -56.658673,41.9871 -81.512903,46.3886 -5.14123,0.9105 -15.0224604,1.1085 -19.44687037,0.3898 z M 18.633607,338.39933 c 14.22804,-2.8631 32.52437,-12.0202 49.80606,-24.9272 9.12793,-6.8174 22.62362,-18.5958 22.62362,-19.7448 0,-0.3258 -1.65639,-2.4114 -3.68086,-4.6347 -9.40695,-10.3308 -19.79717,-23.03417 -28.95019,-35.39547 -3.23257,-4.36562 -6.36592,-8.50469 -6.96301,-9.19793 l -1.08562,-1.26043 -8.73125,-0.84303 c -17.16515,-1.65735 -35.1750704,-4.2834 -48.8156304,-7.11787 -4.2198096,-0.87686 -5.6686096,-1.04384 -6.0233996,-0.69422 -1.04294,1.02776 -4.92079,21.19529 -6.30794,32.80567 -0.86634,7.25124 -1.20397,25.50448 -0.59213,32.01198 1.14429,12.1707 3.85323,22.0222 7.88606,28.6791 4.0820696,6.7382 8.7855496,9.9946 16.1406096,11.175 2.95249,0.4738 10.1764104,0.053 14.6936804,-0.8561 z m 188.846933,0.6328 c 3.96255,-0.8396 6.72319,-2.2568 9.45222,-4.8523 4.22847,-4.0215 6.91714,-8.6579 9.47265,-16.3346 5.57254,-16.7399 6.12484,-40.2546 1.57192,-66.92619 -1.38056,-8.0875 -3.31589,-16.77779 -3.8569,-17.3188 -0.25663,-0.25663 -2.62519,0.0859 -6.89512,0.99715 -14.31926,3.05586 -31.82875,5.78306 -47.38233,7.38005 -4.58391,0.47066 -8.72316,0.9339 -9.19834,1.02942 -0.55879,0.11233 -2.02135,1.82078 -4.14056,4.83668 -9.90114,14.09058 -22.36785,29.93619 -32.81878,41.71369 -1.81235,2.0424 -3.2411,3.9375 -3.175,4.2114 0.16077,0.6661 7.27683,7.2463 13.41549,12.4053 28.35361,23.8286 56.60562,36.4493 73.55475,32.8582 z m -97.82549,-64.30117 c 10.74429,-12.34153 23.81586,-29.00319 23.20787,-29.58188 -0.1794,-0.17076 -6.66627,-0.17216 -14.41525,-0.003 -13.02871,0.28423 -17.9487,0.26502 -34.428913,-0.13443 -4.96428,-0.12032 -6.05234,-0.0478 -6.05234,0.40331 0,1.69656 26.359713,33.08697 27.784373,33.08697 0.34177,0 2.09869,-1.6969 3.90426,-3.77085 z m 29.82699,-50.57293 c 4.03821,-0.24748 7.74197,-0.53651 8.23059,-0.6423 1.03492,-0.22405 3.69406,-4.0844 11.879,-17.24513 10.35248,-16.64593 17.51111,-29.28524 25.98406,-45.87754 3.24334,-6.35132 5.89698,-11.87854 5.89698,-12.28272 0,-1.54081 -14.78533,-28.96037 -23.74483,-44.03505 -9.61373,-16.175441 -18.88683,-30.297991 -20.06538,-30.558761 -1.79824,-0.39788 -13.41404,-1.00884 -27.72463,-1.45825 -11.65251,-0.36593 -18.35272,-0.36321 -30.162503,0.0122 -14.85147,0.47216 -25.84788,1.0467 -27.53677,1.43873 -0.56483,0.13111 -2.42263,2.5994 -5.60255,7.44359 -12.55779,19.130121 -22.95255,37.080121 -32.91939,56.846281 l -5.39791,10.70509 4.60034,9.13866 c 7.57732,15.05247 15.8153,29.783 24.42045,43.66678 5.62293,9.0722 13.67186,21.31882 14.39996,21.90987 0.52468,0.42591 6.63176,0.88485 19.40196,1.45801 6.65523,0.29871 51.506483,-0.10068 58.340623,-0.51951 z M 96.315177,189.59014 c -20.59378,-4.45479 -34.77715,-22.81222 -33.70375,-43.62249 0.70286,-13.62645 7.66844,-25.87888 18.93011,-33.29798 21.382783,-14.086801 49.865233,-6.46456 61.315493,16.40874 7.98459,15.95021 5.23442,34.93689 -6.94668,47.95852 -5.32474,5.69216 -12.6519,10.06944 -20.16801,12.04845 -5.41785,1.42653 -14.12064,1.65265 -19.427163,0.50476 z m -61.04737,31.42074 c 0.1159,-0.18754 -0.90991,-2.10742 -2.27959,-4.26641 -6.61745,-10.4309 -14.80318,-24.47951 -21.13686,-36.27577 -2.1081203,-3.9263 -3.9969604,-7.13872 -4.1974204,-7.13872 -0.20046,0 -0.88717,1.16499 -1.52602,2.58888 -3.86177,8.60716 -14.05945,37.36725 -13.54483,38.19992 0.49975,0.8086 19.2444704,4.188 34.5833304,6.23486 8.38225,1.11855 7.84331,1.07482 8.10139,0.65724 z M 185.3211,219.57884 c 15.27119,-2.2029 32.68424,-5.55168 32.98833,-6.34413 0.58194,-1.51649 -14.23156,-40.15415 -15.55893,-40.58197 -0.23649,-0.0762 -1.73446,2.32205 -3.32882,5.32948 -4.9517,9.34038 -10.63402,19.30523 -17.71524,31.06651 -3.74555,6.22101 -6.73105,11.44488 -6.63444,11.60859 0.23335,0.39547 -0.51367,0.47407 10.2491,-1.07848 z M -24.214013,199.12685 c 5.05769,-15.11744 9.87983,-27.52995 16.8909796,-43.47855 l 3.14958,-7.1645 -3.39755,-7.69904 C -14.057823,126.08527 -20.195493,110.1623 -25.201313,95.046379 c -1.6087,-4.85774 -2.22277,-6.25078 -2.75543,-6.25078 -2.51784,0 -23.3031,7.3276 -33.00819,11.636651 -28.25374,12.54464 -47.200667,28.50371 -50.952887,42.91783 -1.22464,4.70444 -0.66798,8.78379 1.9518,14.30333 7.51075,15.82413 29.193577,31.82802 59.543377,43.9484 7.89319,3.15219 20.79052,7.4567 21.99496,7.34087 0.88634,-0.0853 1.21204,-0.84397 4.21367,-9.81583 z m 270.523603,6.71671 c 36.99058,-12.26276 64.75942,-30.35227 73.36647,-47.79327 3.62181,-7.33911 3.66473,-12.25137 0.16992,-19.44688 -8.50824,-17.5177 -36.99779,-35.60968 -74.99363,-47.623891 -5.20132,-1.64465 -6.85428,-2.0255 -7.21573,-1.66254 -0.25787,0.25894 -1.12673,2.52464 -1.93079,5.03487 -3.92033,12.238991 -11.01925,30.578921 -17.41107,44.981131 -2.09184,4.71339 -3.80334,8.68693 -3.80334,8.83009 0,0.14316 1.44524,3.39987 3.21165,7.23714 6.79553,14.76231 14.45228,33.96561 18.62154,46.7032 1.48313,4.53117 2.16594,6.15157 2.59217,6.15157 0.0653,0 3.3921,-1.08514 7.39281,-2.41142 z M 9.7265567,120.44638 C 15.762327,108.8118 26.666427,89.940409 33.850507,78.695779 c 0.69009,-1.08013 1.11746,-2.10113 0.94971,-2.26888 -0.82677,-0.82677 -40.7308804,6.02535 -41.9088204,7.19636 -0.57094,0.56758 5.6959701,18.717661 11.23179,32.529241 2.74799,6.85609 3.08349,7.5681 3.56609,7.5681 0.18628,0 1.1030601,-1.4734 2.0372801,-3.27422 z M 204.89059,119.02309 c 2.76876,-6.55594 7.53224,-19.268001 10.37227,-27.680001 1.893,-5.60695 2.29153,-7.19098 1.90292,-7.56355 -0.66018,-0.63294 -18.5371,-4.13167 -29.8603,-5.84402 -12.04232,-1.8211 -11.75156,-1.79084 -11.96113,-1.24471 -0.0989,0.25769 2.21351,4.38149 5.13865,9.164 5.8546,9.5721 13.27769,22.432581 17.73281,30.722041 3.46213,6.44186 3.88863,7.14375 4.34083,7.14375 0.19253,0 1.2428,-2.11388 2.33395,-4.69751 z M -3.4669834,61.820829 c 14.2104004,-2.87434 31.0969404,-5.46122 45.3177804,-6.94233 9.28334,-0.96686 8.41783,-0.6639 10.57014,-3.70002 10.27099,-14.48862 22.64663,-29.77553 37.57122,-46.4095196 1.00168,-1.11641 1.16533,-0.91509 -5.75011,-7.07378 C 55.918837,-27.528661 27.811307,-42.227901 7.9179766,-42.219601 c -7.40880997,0.003 -11.87694,1.55827 -15.87639,5.52596 -11.6232396,11.53091 -15.4850796,40.4494304 -10.1066396,75.68143 1.53888,10.0806 4.55063,24.0084 5.29851,24.50286 0.24414,0.16142 0.67848,0.20732 0.96518,0.10201 0.28671,-0.10531 4.0371796,-0.90264 8.3343796,-1.77183 z m 227.0474634,0.6818 c 0.70457,-2.16706 3.53264,-16.82905 4.38254,-22.72109 2.20563,-15.29087 2.79407,-32.9006096 1.46331,-43.7911796 -1.96648,-16.0930004 -6.05054,-26.9208404 -12.55727,-33.2923304 -3.98995,-3.90702 -8.24051,-5.4113 -15.27608,-5.40624 -17.33804,0.0125 -41.87083,12.06498 -66.87344,32.8536704 -6.96901,5.79446 -14.68505,12.98152 -14.67283,13.66691 0.006,0.35601 2.08683,2.96901 4.62327,5.80667 9.76217,10.9214496 19.61748,23.2314096 29.86728,37.3062496 2.70232,3.71078 4.96386,6.81062 5.02565,6.88853 0.0618,0.0779 3.91813,0.56288 8.56965,1.0777 16.38378,1.81332 36.61004,5.05059 49.13698,7.86452 5.73855,1.28905 5.81038,1.28616 6.31094,-0.25341 z m -91.33141,-11.28536 c -0.28336,-1.22078 -15.6598,-20.19036 -22.78105,-28.10448 -2.13441,-2.37205 -3.87344,-3.96875 -4.32252,-3.96875 -0.9749,0 -10.695553,11.01851 -20.285753,22.99422 -4.00962,5.00698 -7.29021,9.20393 -7.29021,9.32656 0,0.12264 12.32747,0.22297 27.394373,0.22297 20.9182,0 27.36855,-0.11123 27.28516,-0.47052 z"
       style="fill:#00d4fa"
       id="path1" /></g></svg>
